# xmcd
#
# Track frame offsets:
#	182
#	18407
#	34900
#	63070
#	83242
#	108052
#
# Disc length: 1777 seconds
# Revision: 1
# Processed by: cddbd v1.5.2PL0 Copyright (c) Steve Scherf et al.
# Submitted via: dBpowerAMP V12.0
#
DISCID=3c06ef06
DTITLE=Key West feat. Erik - Looks Like I'm In Love Again
DYEAR=1993
DGENRE=House
TTITLE0=Looks Like I'm In Love Again [Power Radio Mix]
TTITLE1=Looks Like I'm In Love Again [7 Inch Version]
TTITLE2=Looks Like I'm In Love Again [Finger Poppin' Good 12 Inch]
TTITLE3=Looks Like I'm In Love Again [Wall Of Bass Mix]
TTITLE4=Looks Like I'm In Love Again [I'm In Trance Again Mix]
TTITLE5=Looks Like I'm In Love Again [Italio Dub Again]
EXTD=
EXTT0=
EXTT1=
EXTT2=
EXTT3=
EXTT4=
EXTT5=
PLAYORDER=
